<svg xmlns="http://www.w3.org/2000/svg" width="652.73" height="215.88" xmlns:v="https://vecta.io/nano"><g transform="matrix(.79671 0 0 .79671 -71.901 -24.842)"><path d="M121.21 90.909h30.303v30.303H121.21zm121.21 0h30.303v30.303H242.42z" fill="gold"/><path d="M121.21 121.21h60.606v30.303H121.21zm90.91 0h60.606v30.303H212.12z" fill="#ffaf00"/><path fill="#ff8205" d="M121.21 151.52h151.52v30.303H121.21z"/><path d="M121.21 181.82h30.303v30.303H121.21zm60.61 0h30.303v30.303H181.82zm60.6 0h30.303v30.303H242.42z" fill="#fa500f"/><path d="M90.909 212.12h90.909v30.303H90.909zm121.211 0h90.909v30.303H212.12z" fill="#e10500"/></g><path d="M217.807 144.156V71.729h21.886l13.142 49.404 12.994-49.404h21.936v72.427h-13.586V87.143l-14.377 57.013h-14.08l-14.327-57.013v57.013zm83.575-59.578V71.733h13.883v12.845zm0 59.582V91.693h13.883v52.467zm22.411-14.974l13.932-2.125c.593 2.702 1.794 4.752 3.606 6.151 3.297 2.894 12.543 2.666 15.711.123 1.965-1.352 2.518-4.576.84-6.324-.692-.658-2.24-1.268-4.644-1.828-11.199-2.471-18.296-4.726-21.293-6.768-8.08-5.107-8.236-17.335-.84-23.27 5.88-6.021 26.236-5.959 32.706-1.136 3.491 2.338 5.895 5.797 7.213 10.375l-13.092 2.42c-1.378-4.693-4.734-6.312-9.881-6.323-3.656 0-6.274.511-7.855 1.531-1.972 1.28-2.173 3.944-.198 5.336 1.251.923 5.574 2.224 12.968 3.903s12.557 3.738 15.488 6.175c6.66 5.67 5.399 17.168-1.68 22.726-6.975 6.729-27.036 6.809-34.805.84-4.167-2.898-6.892-6.834-8.177-11.807zm106.528 14.97h-13.883V91.689h12.896v7.46c2.206-3.524 4.191-5.846 5.953-6.966 4.59-2.867 10.504-1.794 15.143.939l-4.299 12.104c-6.272-4.172-12.86-2.712-14.648 5.139-1.566 4.525-1.099 25.975-1.161 33.792zm35.653-36.457l-12.598-2.273c3.388-11.409 10.291-14.83 22.725-14.92 9.391.124 16.054 1.213 20.232 7.781 1.236 2.256 1.853 6.398 1.853 12.425.043 5.789-.595 21.69.518 26.407.445 2.191 1.276 4.537 2.495 7.041h-13.734c-.413-.913-1.374-4.305-1.828-5.731-4.603 4.469-9.924 6.913-16.254 6.917-9.844.196-17.446-5.876-17.441-15.514-.037-5.759 2.905-10.795 8.079-13.264 2.552-1.236 6.232-2.314 11.042-3.236 6.488-1.218 10.983-2.355 13.488-3.409v-1.383c0-2.668-.659-4.57-1.976-5.706-1.902-1.948-10.514-2.489-13.241-.247-1.383.972-2.504 2.676-3.36 5.113h-.001zm18.576 11.264c-2.528 1.054-13.828 2.876-16.007 4.545-3.597 2.365-3.466 7.165-.543 9.931 3.4 3.302 8.931 2.453 12.696-.347 4.593-3.29 3.736-8.216 3.854-14.13zm26.51 25.193V71.729h13.883v72.427zm120.016 0h-15.909l-6.323-16.451h-28.952l-5.978 16.451H558.4l28.21-72.427h15.463l29 72.427zm-26.926-28.654l-9.98-26.876-9.781 26.876h19.762zm33.427 28.654V71.729h14.624v72.427zM408.204 91.693v11.067h-9.485v21.145l.272 7.485c1.449 3.802 5.385 2.381 9.165 1.112l1.186 10.771c-8.073 3.414-22.956 3.817-24.11-7.855-.319-1.797-.412-6.324-.445-11.512v-21.145h-6.374V91.694h6.374V81.27l13.932-8.102v18.527h9.485z" fill="#fff"/></svg>